<svg width="1408" height="376" viewBox="0 0 1408 376" fill="none" xmlns="http://www.w3.org/2000/svg">
<g clip-path="url(#clip0_19_15)">
<path d="M1329.47 294L1518.27 -91.5H1140.68L1329.47 294Z" fill="#D50033" fill-opacity="0.5"/>
<path d="M265.179 326.5L420.63 -29H109.727L265.179 326.5Z" fill="#D50033" fill-opacity="0.5"/>
<path d="M133.679 216.5L375.3 -25H-107.942L133.679 216.5Z" fill="#D50033" fill-opacity="0.5"/>
<path d="M521.679 234.5L763.3 -7H280.058L521.679 234.5Z" fill="#D50033" fill-opacity="0.5"/>
<path d="M219.679 206.5L461.3 -35H-21.9423L219.679 206.5Z" fill="#D50033" fill-opacity="0.5"/>
<path d="M429.679 206.5L671.3 -35H188.058L429.679 206.5Z" fill="#D50033" fill-opacity="0.5"/>
<path d="M761.679 216.5L1003.3 -25H520.058L761.679 216.5Z" fill="#D50033" fill-opacity="0.5"/>
<path d="M922.679 142.5L1086.36 -43.5H759L922.679 142.5Z" fill="#D50033" fill-opacity="0.5"/>
<path d="M1200.68 179.5L1364.36 -6.5H1037L1200.68 179.5Z" fill="#D50033" fill-opacity="0.5"/>
<path d="M-6.3212 132.5L157.358 -53.5H-170L-6.3212 132.5Z" fill="#D50033" fill-opacity="0.5"/>
<path d="M1040.68 216.5L1282.3 -25H799.058L1040.68 216.5Z" fill="#D50033" fill-opacity="0.5"/>
<path d="M1087.18 326.5L1242.63 -29H931.727L1087.18 326.5Z" fill="#D50033" fill-opacity="0.5"/>
<path d="M1329.68 234.5L1571.3 -7H1088.06L1329.68 234.5Z" fill="#D50033" fill-opacity="0.5"/>
<path d="M689.679 294.5L878.472 -37H500.885L689.679 294.5Z" fill="#D50033" fill-opacity="0.5"/>
<path d="M922.679 354.5L1111.47 -31H733.885L922.679 354.5Z" fill="#D50033" fill-opacity="0.5"/>
<path d="M47.6788 294.5L236.472 -37H-141.115L47.6788 294.5Z" fill="#D50033" fill-opacity="0.5"/>
<path d="M1389.68 206.5L1578.47 -125H1200.89L1389.68 206.5Z" fill="#D50033" fill-opacity="0.5"/>
</g>
<defs>
<clipPath id="clip0_19_15">
<rect width="1408" height="376" fill="white"/>
</clipPath>
</defs>
</svg>
