<svg width="1408" height="376" viewBox="0 0 1408 376" fill="none" xmlns="http://www.w3.org/2000/svg">
<g clip-path="url(#clip0_19_15)">
<path d="M78.5278 82L-110.266 467.5H267.321L78.5278 82Z" fill="#D50033" fill-opacity="0.5"/>
<path d="M1142.82 49.5L987.37 405H1298.27L1142.82 49.5Z" fill="#D50033" fill-opacity="0.5"/>
<path d="M1274.32 159.5L1032.7 401H1515.94L1274.32 159.5Z" fill="#D50033" fill-opacity="0.5"/>
<path d="M886.321 141.5L644.7 383H1127.94L886.321 141.5Z" fill="#D50033" fill-opacity="0.5"/>
<path d="M1188.32 169.5L946.7 411H1429.94L1188.32 169.5Z" fill="#D50033" fill-opacity="0.5"/>
<path d="M978.321 169.5L736.7 411H1219.94L978.321 169.5Z" fill="#D50033" fill-opacity="0.5"/>
<path d="M646.321 159.5L404.7 401H887.942L646.321 159.5Z" fill="#D50033" fill-opacity="0.5"/>
<path d="M485.321 233.5L321.642 419.5H649L485.321 233.5Z" fill="#D50033" fill-opacity="0.5"/>
<path d="M207.321 196.5L43.6425 382.5H371L207.321 196.5Z" fill="#D50033" fill-opacity="0.5"/>
<path d="M1414.32 243.5L1250.64 429.5H1578L1414.32 243.5Z" fill="#D50033" fill-opacity="0.5"/>
<path d="M367.321 159.5L125.7 401H608.942L367.321 159.5Z" fill="#D50033" fill-opacity="0.5"/>
<path d="M320.821 49.5L165.37 405H476.273L320.821 49.5Z" fill="#D50033" fill-opacity="0.5"/>
<path d="M78.3213 141.5L-163.3 383H319.942L78.3213 141.5Z" fill="#D50033" fill-opacity="0.5"/>
<path d="M718.321 81.5L529.528 413H907.115L718.321 81.5Z" fill="#D50033" fill-opacity="0.5"/>
<path d="M485.321 21.5L296.528 407H674.115L485.321 21.5Z" fill="#D50033" fill-opacity="0.5"/>
<path d="M1360.32 81.5L1171.53 413H1549.11L1360.32 81.5Z" fill="#D50033" fill-opacity="0.5"/>
<path d="M18.3213 169.5L-170.472 501H207.115L18.3213 169.5Z" fill="#D50033" fill-opacity="0.5"/>
<path d="M932 174L1054.98 384H809.025L932 174Z" fill="#D50033" fill-opacity="0.5"/>
</g>
<defs>
<clipPath id="clip0_19_15">
<rect width="1408" height="376" fill="white" transform="translate(1408 376) rotate(-180)"/>
</clipPath>
</defs>
</svg>
